<svg width="110" height="104" viewBox="0 0 110 104" fill="none" xmlns="http://www.w3.org/2000/svg">
<path d="M98.5405 16.0594H10.6711V18.2699H98.5405V16.0594Z" fill="#202B52"/>
<path d="M98.5405 13.8488H10.6711V16.0594H98.5405V13.8488Z" fill="#3A4775"/>
<path d="M98.5405 37.7504H10.6711V39.9609H98.5405V37.7504Z" fill="#202B52"/>
<path d="M98.5405 35.5399H10.6711V37.7504H98.5405V35.5399Z" fill="#3A4775"/>
<path d="M98.5405 60.298H10.6711V62.5086H98.5405V60.298Z" fill="#202B52"/>
<path d="M98.5405 58.0875H10.6711V60.298H98.5405V58.0875Z" fill="#3A4775"/>
<path d="M98.5405 86.2443H10.6711V88.4549H98.5405V86.2443Z" fill="#202B52"/>
<path d="M98.5405 84.0338H10.6711V86.2443H98.5405V84.0338Z" fill="#3A4775"/>
<path d="M27.7199 23.5199C31.8403 23.5199 35.1805 20.1797 35.1805 16.0593C35.1805 11.939 31.8403 8.59872 27.7199 8.59872C23.5995 8.59872 20.2593 11.939 20.2593 16.0593C20.2593 20.1797 23.5995 23.5199 27.7199 23.5199Z" fill="#3BCEFF"/>
<path d="M29.1015 21.3094C24.9843 21.3094 21.6409 17.966 21.6409 13.8488C21.6409 12.8541 21.8343 11.9146 22.1935 11.058C21.0053 12.3843 20.2593 14.1251 20.2593 16.0594C20.2593 20.1765 23.6027 23.52 27.7199 23.52C30.8423 23.52 33.5226 21.5857 34.6279 18.8502C33.2739 20.3699 31.312 21.3094 29.1015 21.3094Z" fill="#2FAFDC"/>
<path d="M27.7199 23.5199C31.8403 23.5199 35.1805 20.1797 35.1805 16.0593C35.1805 11.939 31.8403 8.59872 27.7199 8.59872C23.5995 8.59872 20.2593 11.939 20.2593 16.0593C20.2593 20.1797 23.5995 23.5199 27.7199 23.5199Z" stroke="#202B52" stroke-width="2" stroke-miterlimit="10" stroke-linecap="round" stroke-linejoin="round"/>
<path d="M45.6808 23.5199C49.8012 23.5199 53.1414 20.1797 53.1414 16.0593C53.1414 11.939 49.8012 8.59872 45.6808 8.59872C41.5604 8.59872 38.2202 11.939 38.2202 16.0593C38.2202 20.1797 41.5604 23.5199 45.6808 23.5199Z" fill="#12B0FF"/>
<path d="M47.0624 21.3094C42.9453 21.3094 39.6018 17.966 39.6018 13.8488C39.6018 12.8541 39.7952 11.9146 40.1544 11.058C38.9663 12.3843 38.2202 14.1251 38.2202 16.0594C38.2202 20.1765 41.5637 23.52 45.6808 23.52C48.8032 23.52 51.4835 21.5857 52.5888 18.8502C51.2348 20.3699 49.273 21.3094 47.0624 21.3094Z" fill="#129BE5"/>
<path d="M45.6808 23.5199C49.8012 23.5199 53.1414 20.1797 53.1414 16.0593C53.1414 11.939 49.8012 8.59872 45.6808 8.59872C41.5604 8.59872 38.2202 11.939 38.2202 16.0593C38.2202 20.1797 41.5604 23.5199 45.6808 23.5199Z" stroke="#202B52" stroke-width="2" stroke-miterlimit="10" stroke-linecap="round" stroke-linejoin="round"/>
<path d="M63.3651 23.5199C67.4855 23.5199 70.8257 20.1797 70.8257 16.0593C70.8257 11.939 67.4855 8.59872 63.3651 8.59872C59.2448 8.59872 55.9045 11.939 55.9045 16.0593C55.9045 20.1797 59.2448 23.5199 63.3651 23.5199Z" fill="#5392FF"/>
<path d="M64.7467 21.3094C60.6296 21.3094 57.2861 17.966 57.2861 13.8488C57.2861 12.8541 57.4796 11.9146 57.8388 11.058C56.6506 12.3843 55.9045 14.1251 55.9045 16.0594C55.9045 20.1765 59.248 23.52 63.3651 23.52C66.4875 23.52 69.1678 21.5857 70.2731 18.8502C68.9192 20.3699 66.9573 21.3094 64.7467 21.3094Z" fill="#487FDF"/>
<path d="M63.3651 23.5199C67.4855 23.5199 70.8257 20.1797 70.8257 16.0593C70.8257 11.939 67.4855 8.59872 63.3651 8.59872C59.2448 8.59872 55.9045 11.939 55.9045 16.0593C55.9045 20.1797 59.2448 23.5199 63.3651 23.5199Z" stroke="#202B52" stroke-width="2" stroke-miterlimit="10" stroke-linecap="round" stroke-linejoin="round"/>
<path d="M54.6059 45.211C58.7262 45.211 62.0665 41.8708 62.0665 37.7504C62.0665 33.63 58.7262 30.2898 54.6059 30.2898C50.4855 30.2898 47.1453 33.63 47.1453 37.7504C47.1453 41.8708 50.4855 45.211 54.6059 45.211Z" fill="#F8D96B"/>
<path d="M56.2638 43.2768C52.1466 43.2768 48.8032 39.9333 48.8032 35.8162C48.8032 34.4346 49.19 33.1082 49.8532 32.003C48.1953 33.3846 47.1453 35.4293 47.1453 37.7504C47.1453 41.8675 50.4887 45.211 54.6059 45.211C57.3414 45.211 59.7178 43.7465 61.0165 41.5636C59.7454 42.6412 58.0875 43.2768 56.2638 43.2768Z" fill="#F2B955"/>
<path d="M54.6059 45.211C58.7262 45.211 62.0665 41.8708 62.0665 37.7504C62.0665 33.63 58.7262 30.2898 54.6059 30.2898C50.4855 30.2898 47.1453 33.63 47.1453 37.7504C47.1453 41.8708 50.4855 45.211 54.6059 45.211Z" stroke="#202B52" stroke-width="2" stroke-miterlimit="10" stroke-linecap="round" stroke-linejoin="round"/>
<path d="M82.4589 45.211C86.5793 45.211 89.9195 41.8708 89.9195 37.7504C89.9195 33.63 86.5793 30.2898 82.4589 30.2898C78.3385 30.2898 74.9983 33.63 74.9983 37.7504C74.9983 41.8708 78.3385 45.211 82.4589 45.211Z" fill="#FC3A4D"/>
<path d="M84.1168 43.2768C79.9997 43.2768 76.6562 39.9333 76.6562 35.8162C76.6562 34.4346 77.0431 33.1082 77.7062 32.003C76.0483 33.3846 74.9983 35.4293 74.9983 37.7504C74.9983 41.8675 78.3417 45.211 82.4589 45.211C85.1944 45.211 87.5708 43.7465 88.8695 41.5636C87.5708 42.6412 85.9129 43.2768 84.1168 43.2768Z" fill="#E82E4A"/>
<path d="M82.4589 45.211C86.5793 45.211 89.9195 41.8708 89.9195 37.7504C89.9195 33.63 86.5793 30.2898 82.4589 30.2898C78.3385 30.2898 74.9983 33.63 74.9983 37.7504C74.9983 41.8708 78.3385 45.211 82.4589 45.211Z" stroke="#202B52" stroke-width="2" stroke-miterlimit="10" stroke-linecap="round" stroke-linejoin="round"/>
<path d="M27.7199 67.7587C31.8403 67.7587 35.1805 64.4184 35.1805 60.298C35.1805 56.1777 31.8403 52.8374 27.7199 52.8374C23.5995 52.8374 20.2593 56.1777 20.2593 60.298C20.2593 64.4184 23.5995 67.7587 27.7199 67.7587Z" fill="#87D14B"/>
<path d="M29.3778 65.8244C25.2606 65.8244 21.9172 62.481 21.9172 58.3638C21.9172 56.9822 22.304 55.6559 22.9672 54.5506C21.3093 55.9322 20.2593 57.977 20.2593 60.298C20.2593 64.4152 23.6027 67.7587 27.7199 67.7587C30.4554 67.7587 32.8318 66.2942 34.1305 64.1112C32.8318 65.1613 31.1739 65.8244 29.3778 65.8244Z" fill="#79BA3A"/>
<path d="M32.4174 60.298C32.4174 57.7006 30.3174 55.6006 27.72 55.6006" stroke="white" stroke-width="2" stroke-miterlimit="10" stroke-linecap="round" stroke-linejoin="round"/>
<path d="M27.7199 67.7587C31.8403 67.7587 35.1805 64.4184 35.1805 60.298C35.1805 56.1777 31.8403 52.8374 27.7199 52.8374C23.5995 52.8374 20.2593 56.1777 20.2593 60.298C20.2593 64.4184 23.5995 67.7587 27.7199 67.7587Z" stroke="#202B52" stroke-width="2" stroke-miterlimit="10" stroke-linecap="round" stroke-linejoin="round"/>
<path d="M47.1454 67.7587C51.2658 67.7587 54.606 64.4184 54.606 60.298C54.606 56.1777 51.2658 52.8374 47.1454 52.8374C43.025 52.8374 39.6848 56.1777 39.6848 60.298C39.6848 64.4184 43.025 67.7587 47.1454 67.7587Z" fill="#78D698"/>
<path d="M47.1454 67.7587C51.2658 67.7587 54.606 64.4184 54.606 60.298C54.606 56.1777 51.2658 52.8374 47.1454 52.8374C43.025 52.8374 39.6848 56.1777 39.6848 60.298C39.6848 64.4184 43.025 67.7587 47.1454 67.7587Z" fill="#78D698"/>
<path d="M48.8033 65.8244C44.6862 65.8244 41.3427 62.481 41.3427 58.3638C41.3427 56.9822 41.7296 55.6559 42.3927 54.5506C40.7348 55.9322 39.6848 57.977 39.6848 60.298C39.6848 64.4152 43.0283 67.7587 47.1454 67.7587C49.881 67.7587 52.2573 66.2942 53.556 64.1112C52.285 65.1613 50.627 65.8244 48.8033 65.8244Z" fill="#5BC47B"/>
<path d="M51.8427 60.298C51.8427 57.7006 49.7427 55.6006 47.1453 55.6006" stroke="white" stroke-width="2" stroke-miterlimit="10" stroke-linecap="round" stroke-linejoin="round"/>
<path d="M47.1454 67.7587C51.2658 67.7587 54.606 64.4184 54.606 60.298C54.606 56.1777 51.2658 52.8374 47.1454 52.8374C43.025 52.8374 39.6848 56.1777 39.6848 60.298C39.6848 64.4184 43.025 67.7587 47.1454 67.7587Z" stroke="#202B52" stroke-width="2" stroke-miterlimit="10" stroke-linecap="round" stroke-linejoin="round"/>
<path d="M39.132 93.7049C43.2524 93.7049 46.5926 90.3647 46.5926 86.2443C46.5926 82.1239 43.2524 78.7837 39.132 78.7837C35.0116 78.7837 31.6714 82.1239 31.6714 86.2443C31.6714 90.3647 35.0116 93.7049 39.132 93.7049Z" fill="#E17555"/>
<path d="M40.7899 91.7707C36.6728 91.7707 33.3293 88.4272 33.3293 84.3101C33.3293 82.9285 33.7162 81.6022 34.3793 80.4969C32.7214 81.8785 31.6714 83.9232 31.6714 86.2443C31.6714 90.3615 35.0148 93.7049 39.132 93.7049C41.8676 93.7049 44.2439 92.2405 45.5426 90.0575C44.2715 91.1352 42.6136 91.7707 40.7899 91.7707Z" fill="#E45E5B"/>
<path d="M43.8295 86.2443C43.8295 83.6469 41.7295 81.5469 39.1321 81.5469" stroke="white" stroke-width="2" stroke-miterlimit="10" stroke-linecap="round" stroke-linejoin="round"/>
<path d="M39.132 93.7049C43.2524 93.7049 46.5926 90.3647 46.5926 86.2443C46.5926 82.1239 43.2524 78.7837 39.132 78.7837C35.0116 78.7837 31.6714 82.1239 31.6714 86.2443C31.6714 90.3647 35.0116 93.7049 39.132 93.7049Z" stroke="#202B52" stroke-width="2" stroke-miterlimit="10" stroke-linecap="round" stroke-linejoin="round"/>
<path d="M56.0978 93.7049C60.2182 93.7049 63.5584 90.3647 63.5584 86.2443C63.5584 82.1239 60.2182 78.7837 56.0978 78.7837C51.9774 78.7837 48.6372 82.1239 48.6372 86.2443C48.6372 90.3647 51.9774 93.7049 56.0978 93.7049Z" fill="#9E3B53"/>
<path d="M57.7557 91.7707C53.6386 91.7707 50.2951 88.4272 50.2951 84.3101C50.2951 82.9285 50.682 81.6022 51.3451 80.4969C49.6872 81.8785 48.6372 83.9232 48.6372 86.2443C48.6372 90.3615 51.9807 93.7049 56.0978 93.7049C58.8334 93.7049 61.2097 92.2405 62.5084 90.0575C61.2097 91.1352 59.5518 91.7707 57.7557 91.7707Z" fill="#883042"/>
<path d="M60.7956 86.2443C60.7956 83.6469 58.6955 81.5469 56.0981 81.5469" stroke="white" stroke-width="2" stroke-miterlimit="10" stroke-linecap="round" stroke-linejoin="round"/>
<path d="M56.0978 93.7049C60.2182 93.7049 63.5584 90.3647 63.5584 86.2443C63.5584 82.1239 60.2182 78.7837 56.0978 78.7837C51.9774 78.7837 48.6372 82.1239 48.6372 86.2443C48.6372 90.3647 51.9774 93.7049 56.0978 93.7049Z" stroke="#202B52" stroke-width="2" stroke-miterlimit="10" stroke-linecap="round" stroke-linejoin="round"/>
<path d="M86.7143 93.7049C90.8347 93.7049 94.1749 90.3647 94.1749 86.2443C94.1749 82.1239 90.8347 78.7837 86.7143 78.7837C82.5939 78.7837 79.2537 82.1239 79.2537 86.2443C79.2537 90.3647 82.5939 93.7049 86.7143 93.7049Z" fill="#53325A"/>
<path d="M88.3722 91.7707C84.255 91.7707 80.9116 88.4272 80.9116 84.3101C80.9116 82.9285 81.2984 81.6022 81.9616 80.4969C80.3037 81.8785 79.2537 83.9232 79.2537 86.2443C79.2537 90.3615 82.5971 93.7049 86.7143 93.7049C89.4498 93.7049 91.8262 92.2405 93.1249 90.0575C91.8262 91.1352 90.1683 91.7707 88.3722 91.7707Z" fill="#4A2D51"/>
<path d="M91.4113 86.2443C91.4113 83.6469 89.3113 81.5469 86.7139 81.5469" stroke="white" stroke-width="2" stroke-miterlimit="10" stroke-linecap="round" stroke-linejoin="round"/>
<path d="M86.7143 93.7049C90.8347 93.7049 94.1749 90.3647 94.1749 86.2443C94.1749 82.1239 90.8347 78.7837 86.7143 78.7837C82.5939 78.7837 79.2537 82.1239 79.2537 86.2443C79.2537 90.3647 82.5939 93.7049 86.7143 93.7049Z" stroke="#202B52" stroke-width="2" stroke-miterlimit="10" stroke-linecap="round" stroke-linejoin="round"/>
<path d="M5.97374 102.077C3.23818 102.077 1 99.8392 1 97.1037V5.97374C1 3.23818 3.23818 1 5.97374 1C8.7093 1 10.9475 3.23818 10.9475 5.97374V97.1037C10.9475 99.8392 8.73693 102.077 5.97374 102.077Z" fill="#FDBA4F"/>
<path d="M5.14478 97.1037V5.97374C5.14478 3.95661 6.33295 2.24343 8.04613 1.46974C7.4106 1.16579 6.7198 1 5.97374 1C3.23818 1 1 3.23818 1 5.97374V97.1037C1 99.8392 3.23818 102.077 5.97374 102.077C6.7198 102.077 7.4106 101.912 8.04613 101.608C6.33295 100.834 5.14478 99.1208 5.14478 97.1037Z" fill="#E89D3A"/>
<path d="M103.238 102.077C100.503 102.077 98.2644 99.8392 98.2644 97.1037V5.97374C98.2644 3.23818 100.503 1 103.238 1C105.974 1 108.212 3.23818 108.212 5.97374V97.1037C108.212 99.8392 106.001 102.077 103.238 102.077Z" fill="#FDBA4F"/>
<path d="M102.409 97.1037V5.97374C102.409 3.95661 103.597 2.24343 105.311 1.46974C104.675 1.16579 103.984 1 103.238 1C100.503 1 98.2644 3.23818 98.2644 5.97374V97.1037C98.2644 99.8392 100.503 102.077 103.238 102.077C103.984 102.077 104.675 101.912 105.311 101.608C103.597 100.834 102.409 99.1208 102.409 97.1037Z" fill="#E89D3A"/>
<path d="M5.97374 102.077C3.23818 102.077 1 99.8392 1 97.1037V5.97374C1 3.23818 3.23818 1 5.97374 1C8.7093 1 10.9475 3.23818 10.9475 5.97374V97.1037C10.9475 99.8392 8.73693 102.077 5.97374 102.077Z" stroke="#202B52" stroke-width="2" stroke-miterlimit="10" stroke-linecap="round" stroke-linejoin="round"/>
<path d="M103.238 102.077C100.503 102.077 98.2644 99.8392 98.2644 97.1037V5.97374C98.2644 3.23818 100.503 1 103.238 1C105.974 1 108.212 3.23818 108.212 5.97374V97.1037C108.212 99.8392 106.001 102.077 103.238 102.077Z" stroke="#202B52" stroke-width="2" stroke-miterlimit="10" stroke-linecap="round" stroke-linejoin="round"/>
<path d="M32.4174 16.0594C32.4174 13.462 30.3174 11.362 27.72 11.362" stroke="white" stroke-width="2" stroke-miterlimit="10" stroke-linecap="round" stroke-linejoin="round"/>
<path d="M50.3783 16.0594C50.3783 13.462 48.2783 11.362 45.6809 11.362" stroke="white" stroke-width="2" stroke-miterlimit="10" stroke-linecap="round" stroke-linejoin="round"/>
<path d="M68.0627 16.0594C68.0627 13.462 65.9626 11.362 63.3652 11.362" stroke="white" stroke-width="2" stroke-miterlimit="10" stroke-linecap="round" stroke-linejoin="round"/>
<path d="M59.3031 37.7504C59.3031 35.153 57.2031 33.0529 54.6057 33.0529" stroke="white" stroke-width="2" stroke-miterlimit="10" stroke-linecap="round" stroke-linejoin="round"/>
<path d="M87.1561 37.7504C87.1561 35.153 85.0561 33.0529 82.4587 33.0529" stroke="white" stroke-width="2" stroke-miterlimit="10" stroke-linecap="round" stroke-linejoin="round"/>
</svg>
