<svg width="269" height="65" viewBox="0 0 269 65" fill="none" xmlns="http://www.w3.org/2000/svg">
<path d="M32 65C38.5952 65 44.7381 63.6488 50.4286 60.9464C56.119 58.244 60.6429 54.2619 64 49C62.0952 47.8095 59.2381 47.2738 55.4286 47.3929C51.619 47.5119 48.0714 48.2857 44.7857 49.7143C42.6429 50.6429 40.75 51.8095 39.1071 53.2143C37.4643 54.619 36.3214 55.9643 35.6786 57.25V41.2143C40.4643 40.5476 44.4167 38.7262 47.5357 35.75C50.6548 32.7738 52.2143 28.8929 52.2143 24.1071V3.89286C52.2143 3.08333 51.9345 2.39881 51.375 1.83929C50.8155 1.27976 50.131 1 49.3214 1C48.8214 1.2381 48.0179 1.91071 46.9107 3.01786C45.8036 4.125 44.5774 5.42262 43.2321 6.91071C41.8869 8.39881 41.0357 9.32143 40.6786 9.67857C40.369 9.36905 39.5238 8.41071 38.1429 6.80357C36.7619 5.19643 35.506 3.82738 34.375 2.69643C33.244 1.56548 32.4524 1 32 1C31.5238 1 30.7202 1.56548 29.5893 2.69643C28.4583 3.82738 27.2083 5.19643 25.8393 6.80357C24.4702 8.41071 23.631 9.36905 23.3214 9.67857C22.9643 9.32143 22.1131 8.39881 20.7679 6.91071C19.4226 5.42262 18.1964 4.125 17.0893 3.01786C15.9821 1.91071 15.1667 1.2381 14.6429 1C13.8571 1 13.1786 1.27976 12.6071 1.83929C12.0357 2.39881 11.75 3.08333 11.75 3.89286V24.1071C11.75 26.5357 12.1845 28.7679 13.0536 30.8036C13.9226 32.8393 15.119 34.5595 16.6429 35.9643C18.1667 37.369 19.9167 38.5179 21.8929 39.4107C23.869 40.3036 26 40.9048 28.2857 41.2143V57.25C27.6667 55.9881 26.5357 54.6488 24.8929 53.2321C23.25 51.8155 21.3571 50.6429 19.2143 49.7143C15.9286 48.2857 12.381 47.5119 8.57143 47.3929C4.76191 47.2738 1.90476 47.8095 0 49C3.38095 54.2619 7.91071 58.244 13.5893 60.9464C19.2679 63.6488 25.4048 65 32 65Z" fill="#4CAF50"/>
<path d="M100 1C97.76 1 96 2.76 96 5C96 7.24 97.76 9 100 9C102.24 9 104 7.24 104 5C104 2.76 102.24 1 100 1ZM80 9C77.76 9 76 10.76 76 13C76 15.24 77.76 17 80 17C82.24 17 84 15.24 84 13C84 10.76 82.24 9 80 9ZM120 9C117.76 9 116 10.76 116 13C116 15.24 117.76 17 120 17C122.24 17 124 15.24 124 13C124 10.76 122.24 9 120 9ZM100 17C91.2 17 84 24.2 84 33C84 41.8 91.2 49 100 49C108.8 49 116 41.8 116 33C116 24.2 108.8 17 100 17ZM72 29C69.76 29 68 30.76 68 33C68 35.24 69.76 37 72 37C74.24 37 76 35.24 76 33C76 30.76 74.24 29 72 29ZM128 29C125.76 29 124 30.76 124 33C124 35.24 125.76 37 128 37C130.24 37 132 35.24 132 33C132 30.76 130.24 29 128 29ZM80 49C77.76 49 76 50.76 76 53C76 55.24 77.76 57 80 57C82.24 57 84 55.24 84 53C84 50.76 82.24 49 80 49ZM120 49C117.76 49 116 50.76 116 53C116 55.24 117.76 57 120 57C122.24 57 124 55.24 124 53C124 50.76 122.24 49 120 49ZM100 57C97.76 57 96 58.76 96 61C96 63.24 97.76 65 100 65C102.24 65 104 63.24 104 61C104 58.76 102.24 57 100 57Z" fill="#FF9800"/>
<path d="M198.123 37.6316L180.012 47.8947L183.14 54.7368L170.628 52.1711V65H164.372V52.1711L151.86 54.7368L154.988 47.8947L136.877 37.6316L140.005 31.7132L135 20.5263L146.261 19.7395L149.389 13.6842L160.087 27.0263L154.988 10.2632H161.244L167.5 0L173.756 10.2632H180.012L174.913 27.0263L185.611 13.6842L188.739 19.6026L200 20.3895L194.995 31.4395L198.123 37.6316Z" fill="#FF505F"/>
<path d="M266.871 45.4L261.271 42.525L266.142 41.3625C267.342 41.075 268.057 39.975 267.728 38.9125L267.142 36.975C266.828 35.9125 265.585 35.275 264.385 35.5625L253 38.275L242.742 33L253.014 27.725L264.4 30.4375C265.6 30.725 266.828 30.0875 267.157 29.025L267.742 27.0875C268.057 26.025 267.357 24.925 266.157 24.6375L261.285 23.475L266.885 20.6C267.957 20.05 268.328 18.825 267.714 17.8625L266.585 16.125C265.971 15.1625 264.585 14.8375 263.514 15.3875L257.914 18.2625L259.214 13.925C259.528 12.8625 258.828 11.7625 257.628 11.475L255.457 10.9625C254.257 10.675 253.028 11.3125 252.7 12.375L249.657 22.5L239.385 27.775V17.2125L247.714 9.8C248.585 9.025 248.585 7.75 247.714 6.975L246.128 5.5625C245.257 4.7875 243.828 4.7875 242.957 5.5625L239.4 8.7375V3C239.4 1.9 238.4 1 237.157 1H234.914C233.671 1 232.671 1.9 232.671 3V8.7625L229.114 5.5875C228.242 4.8125 226.814 4.8125 225.942 5.5875L224.3 7C223.428 7.775 223.428 9.05 224.3 9.825L232.628 17.2375V27.8L222.357 22.525L219.314 12.4C219 11.3375 217.757 10.7 216.557 10.9875L214.385 11.5C213.185 11.7875 212.471 12.8875 212.8 13.95L214.1 18.2875L208.5 15.4125C207.428 14.8625 206.057 15.1875 205.428 16.15L204.3 17.8875C203.685 18.85 204.042 20.0625 205.128 20.625L210.728 23.5L205.857 24.6375C204.657 24.925 203.942 26.025 204.271 27.0875L204.857 29.025C205.171 30.0875 206.414 30.725 207.614 30.4375L219 27.725L229.271 33L219 38.275L207.614 35.5625C206.414 35.275 205.185 35.9125 204.857 36.975L204.271 38.9125C203.957 39.975 204.657 41.075 205.857 41.3625L210.728 42.525L205.128 45.4C204.057 45.95 203.685 47.175 204.3 48.1375L205.428 49.875C206.042 50.8375 207.428 51.1625 208.5 50.6125L214.1 47.7375L212.8 52.075C212.485 53.1375 213.185 54.2375 214.385 54.525L216.557 55.0375C217.757 55.325 218.985 54.6875 219.314 53.625L222.357 43.5L232.628 38.225V48.7875L224.3 56.2C223.428 56.975 223.428 58.25 224.3 59.025L225.885 60.4375C226.757 61.2125 228.185 61.2125 229.057 60.4375L232.614 57.2625V63C232.614 64.1 233.614 65 234.857 65H237.1C238.342 65 239.342 64.1 239.342 63V57.2375L242.9 60.4125C243.771 61.1875 245.2 61.1875 246.071 60.4125L247.657 59C248.528 58.225 248.528 56.95 247.657 56.175L239.328 48.7625V38.2L249.6 43.475L252.642 53.6C252.957 54.6625 254.2 55.3 255.4 55.0125L257.571 54.5C258.771 54.2125 259.485 53.1125 259.157 52.05L257.857 47.7125L263.457 50.5875C264.528 51.1375 265.9 50.8125 266.528 49.85L267.657 48.1125C268.314 47.175 267.957 45.95 266.871 45.4Z" fill="#007DFF"/>
</svg>
