<svg width="146" height="109" viewBox="0 0 146 109" fill="none" xmlns="http://www.w3.org/2000/svg">
<path d="M35.4666 62.884V4.50287C35.4666 2.57629 37.0428 1 38.9694 1H103.189C105.115 1 106.692 2.57629 106.692 4.50287V62.884C106.692 64.8106 105.115 66.3869 103.189 66.3869H38.9694C37.0137 66.3869 35.4666 64.8106 35.4666 62.884Z" fill="#EDBEC4"/>
<path d="M37.8018 60.1693V5.29104C37.8018 4.4737 38.444 3.83151 39.2613 3.83151H102.897C103.714 3.83151 104.356 4.4737 104.356 5.29104V60.1693C104.356 60.9866 103.714 61.6288 102.897 61.6288H39.2613C38.444 61.6288 37.8018 60.9574 37.8018 60.1693Z" fill="#F4D7DE"/>
<path d="M35.4666 62.884V4.50287C35.4666 2.57629 37.0428 1 38.9694 1H103.189C105.115 1 106.692 2.57629 106.692 4.50287V62.884C106.692 64.8106 105.115 66.3869 103.189 66.3869H38.9694C37.0137 66.3869 35.4666 64.8106 35.4666 62.884Z" stroke="#3A3842" stroke-width="2" stroke-miterlimit="10" stroke-linecap="round" stroke-linejoin="round"/>
<path d="M40.7209 51.9959V9.37769C40.7209 8.23926 41.6259 7.33435 42.7643 7.33435H99.394C100.532 7.33435 101.437 8.23926 101.437 9.37769V51.9959C101.437 53.1343 100.532 54.0393 99.394 54.0393H42.7643C41.6259 54.0393 40.7209 53.1343 40.7209 51.9959Z" fill="#EDBEC4"/>
<path d="M49.1863 51.4121C45.6543 51.4121 42.7644 48.5222 42.7644 44.9902V16.3834C42.7644 12.8514 45.6543 9.96149 49.1863 9.96149H92.9722C96.5042 9.96149 99.3941 12.8514 99.3941 16.3834V44.9902C99.3941 48.5222 96.5042 51.4121 92.9722 51.4121H49.1863Z" fill="#3A3842"/>
<path d="M94.1397 71.6411H48.0186C46.7342 71.6411 45.6833 70.5903 45.6833 69.3059V66.3868H96.4749V69.3059C96.4749 70.5903 95.4241 71.6411 94.1397 71.6411Z" fill="#EDBEC4"/>
<path d="M96.4749 66.3868H45.6833V69.014H96.4749V66.3868Z" fill="#DBA1A9"/>
<path d="M94.1397 71.6411H48.0186C46.7342 71.6411 45.6833 70.5903 45.6833 69.3059V66.3868H96.4749V69.3059C96.4749 70.5903 95.4241 71.6411 94.1397 71.6411Z" stroke="#3A3842" stroke-width="2" stroke-miterlimit="10" stroke-linecap="round" stroke-linejoin="round"/>
<path d="M121.287 99.6641H20.8714C19.587 99.6641 18.5361 98.6133 18.5361 97.3289V73.9764C18.5361 72.692 19.587 71.6412 20.8714 71.6412H121.287C122.571 71.6412 123.622 72.692 123.622 73.9764V97.3289C123.622 98.6133 122.571 99.6641 121.287 99.6641Z" fill="#EDBEC4"/>
<path d="M121.287 99.6641H20.8714C19.587 99.6641 18.5361 98.6133 18.5361 97.3289V73.9764C18.5361 72.692 19.587 71.6412 20.8714 71.6412H121.287C122.571 71.6412 123.622 72.692 123.622 73.9764V97.3289C123.622 98.6133 122.571 99.6641 121.287 99.6641Z" stroke="#3A3842" stroke-width="2" stroke-miterlimit="10" stroke-linecap="round" stroke-linejoin="round"/>
<path d="M22.1555 94.9936V76.3117C22.1555 75.0273 23.2064 73.9764 24.4908 73.9764H117.638C118.922 73.9764 119.973 75.0273 119.973 76.3117V94.9936C119.973 96.278 118.922 97.3289 117.638 97.3289H24.4908C23.2064 97.3289 22.1555 96.278 22.1555 94.9936Z" fill="#F4D7DE"/>
<path d="M91.5709 59.9066C92.78 59.9066 93.7602 58.9264 93.7602 57.7173C93.7602 56.5082 92.78 55.528 91.5709 55.528C90.3618 55.528 89.3816 56.5082 89.3816 57.7173C89.3816 58.9264 90.3618 59.9066 91.5709 59.9066Z" fill="#CAB5EA"/>
<path d="M91.571 59.6147C92.6189 59.6147 93.4684 58.7652 93.4684 57.7173C93.4684 56.6694 92.6189 55.8199 91.571 55.8199C90.5231 55.8199 89.6736 56.6694 89.6736 57.7173C89.6736 58.7652 90.5231 59.6147 91.571 59.6147Z" fill="#3A3842"/>
<path d="M91.5709 59.3519C92.4737 59.3519 93.2056 58.6201 93.2056 57.7173C93.2056 56.8144 92.4737 56.0826 91.5709 56.0826C90.6681 56.0826 89.9363 56.8144 89.9363 57.7173C89.9363 58.6201 90.6681 59.3519 91.5709 59.3519Z" fill="#33313A"/>
<path d="M53.6816 87.2581V95.2855" stroke="#EDBEC4" stroke-width="2" stroke-miterlimit="10" stroke-linecap="round" stroke-linejoin="round"/>
<path d="M50.7627 87.2581V95.2855" stroke="#EDBEC4" stroke-width="2" stroke-miterlimit="10" stroke-linecap="round" stroke-linejoin="round"/>
<path d="M47.8435 87.2581V95.2855" stroke="#EDBEC4" stroke-width="2" stroke-miterlimit="10" stroke-linecap="round" stroke-linejoin="round"/>
<path d="M44.9246 87.2581V95.2855" stroke="#EDBEC4" stroke-width="2" stroke-miterlimit="10" stroke-linecap="round" stroke-linejoin="round"/>
<path d="M42.0054 87.2581V95.2855" stroke="#EDBEC4" stroke-width="2" stroke-miterlimit="10" stroke-linecap="round" stroke-linejoin="round"/>
<path d="M39.0864 87.2581V95.2855" stroke="#EDBEC4" stroke-width="2" stroke-miterlimit="10" stroke-linecap="round" stroke-linejoin="round"/>
<path d="M36.1672 87.2581V95.2855" stroke="#EDBEC4" stroke-width="2" stroke-miterlimit="10" stroke-linecap="round" stroke-linejoin="round"/>
<path d="M33.2483 87.2581V95.2855" stroke="#EDBEC4" stroke-width="2" stroke-miterlimit="10" stroke-linecap="round" stroke-linejoin="round"/>
<path d="M30.3291 87.2581V95.2855" stroke="#EDBEC4" stroke-width="2" stroke-miterlimit="10" stroke-linecap="round" stroke-linejoin="round"/>
<path d="M53.9443 87.2581V95.2855" stroke="#3A3842" stroke-width="2" stroke-miterlimit="10" stroke-linecap="round" stroke-linejoin="round"/>
<path d="M51.0251 87.2581V95.2855" stroke="#3A3842" stroke-width="2" stroke-miterlimit="10" stroke-linecap="round" stroke-linejoin="round"/>
<path d="M48.1062 87.2581V95.2855" stroke="#3A3842" stroke-width="2" stroke-miterlimit="10" stroke-linecap="round" stroke-linejoin="round"/>
<path d="M45.1873 87.2581V95.2855" stroke="#3A3842" stroke-width="2" stroke-miterlimit="10" stroke-linecap="round" stroke-linejoin="round"/>
<path d="M42.2681 87.2581V95.2855" stroke="#3A3842" stroke-width="2" stroke-miterlimit="10" stroke-linecap="round" stroke-linejoin="round"/>
<path d="M39.3491 87.2581V95.2855" stroke="#3A3842" stroke-width="2" stroke-miterlimit="10" stroke-linecap="round" stroke-linejoin="round"/>
<path d="M36.4299 87.2581V95.2855" stroke="#3A3842" stroke-width="2" stroke-miterlimit="10" stroke-linecap="round" stroke-linejoin="round"/>
<path d="M33.511 87.2581V95.2855" stroke="#3A3842" stroke-width="2" stroke-miterlimit="10" stroke-linecap="round" stroke-linejoin="round"/>
<path d="M30.5918 87.2581V95.2855" stroke="#3A3842" stroke-width="2" stroke-miterlimit="10" stroke-linecap="round" stroke-linejoin="round"/>
<path d="M31.0299 77.5961H29.0449V79.5811H31.0299V77.5961Z" fill="#F26640"/>
<path d="M33.4234 77.5961H31.4385V79.581H33.4234V77.5961Z" fill="#5EB755"/>
<path d="M31.0299 79.9021H29.0449V81.887H31.0299V79.9021Z" fill="#6A82EA"/>
<path d="M33.4234 79.9021H31.4385V81.887H33.4234V79.9021Z" fill="#EFAD43"/>
<path d="M59.4612 14.7195H75.6036" stroke="white" stroke-width="2" stroke-miterlimit="10" stroke-linecap="round" stroke-linejoin="round"/>
<path d="M50.1204 14.7195H54.7909" stroke="white" stroke-width="2" stroke-miterlimit="10" stroke-linecap="round" stroke-linejoin="round"/>
<path d="M92.9722 9.96149H90.7537C89.3817 28.6143 73.8232 43.3263 54.8201 43.3263H42.7644V44.9902C42.7644 48.5222 45.6543 51.4121 49.1863 51.4121H92.9722C96.5042 51.4121 99.3941 48.5222 99.3941 44.9902V16.3834C99.3941 12.8514 96.5042 9.96149 92.9722 9.96149Z" fill="#33313A"/>
<path opacity="0.34" d="M41.6257 78.5594H34.3865V79.6102H41.6257V78.5594Z" fill="#3A3842"/>
<path opacity="0.34" d="M38.0061 80.3692H34.3865V80.9238H38.0061V80.3692Z" fill="#3A3842"/>
<path d="M72.597 95.4898H42.2388V98.9927H72.597V95.4898Z" fill="#E8B5BB"/>
<path d="M30.0371 95.4898H24.199V98.9927H30.0371V95.4898Z" fill="#E8B5BB"/>
<path d="M39.0571 95.4898H33.219V98.9927H39.0571V95.4898Z" fill="#E8B5BB"/>
<path d="M81.6169 95.4898H75.7788V98.9927H81.6169V95.4898Z" fill="#E8B5BB"/>
<path d="M90.637 95.4898H84.7988V98.9927H90.637V95.4898Z" fill="#E8B5BB"/>
<path d="M99.686 95.4898H93.8479V98.9927H99.686V95.4898Z" fill="#E8B5BB"/>
<path d="M72.597 95.4898H42.2388V98.9927H72.597V95.4898Z" stroke="#3A3842" stroke-width="2" stroke-miterlimit="10" stroke-linecap="round" stroke-linejoin="round"/>
<path d="M30.0371 95.4898H24.199V98.9927H30.0371V95.4898Z" stroke="#3A3842" stroke-width="2" stroke-miterlimit="10" stroke-linecap="round" stroke-linejoin="round"/>
<path d="M39.0571 95.4898H33.219V98.9927H39.0571V95.4898Z" stroke="#3A3842" stroke-width="2" stroke-miterlimit="10" stroke-linecap="round" stroke-linejoin="round"/>
<path d="M81.6169 95.4898H75.7788V98.9927H81.6169V95.4898Z" stroke="#3A3842" stroke-width="2" stroke-miterlimit="10" stroke-linecap="round" stroke-linejoin="round"/>
<path d="M90.637 95.4898H84.7988V98.9927H90.637V95.4898Z" stroke="#3A3842" stroke-width="2" stroke-miterlimit="10" stroke-linecap="round" stroke-linejoin="round"/>
<path d="M99.686 95.4898H93.8479V98.9927H99.686V95.4898Z" stroke="#3A3842" stroke-width="2" stroke-miterlimit="10" stroke-linecap="round" stroke-linejoin="round"/>
<path d="M105.232 104.247H18.828C18.1858 104.247 17.6604 103.722 17.6604 103.079V100.16C17.6604 99.5182 18.1858 98.9927 18.828 98.9927H105.232C105.874 98.9927 106.4 99.5182 106.4 100.16V103.079C106.4 103.722 105.874 104.247 105.232 104.247Z" fill="#F2CCD4"/>
<path d="M105.232 104.247H18.828C18.1858 104.247 17.6604 103.722 17.6604 103.079V100.16C17.6604 99.5182 18.1858 98.9927 18.828 98.9927H105.232C105.874 98.9927 106.4 99.5182 106.4 100.16V103.079C106.4 103.722 105.874 104.247 105.232 104.247Z" stroke="#3A3842" stroke-width="2" stroke-miterlimit="10" stroke-linecap="round" stroke-linejoin="round"/>
<path d="M124.002 104.247H113.114V102.846C113.114 100.715 114.836 98.9927 116.967 98.9927H120.178C122.309 98.9927 124.031 100.715 124.031 102.846V104.247H124.002Z" fill="#F2CCD4"/>
<path d="M124.002 104.247H113.114V102.846C113.114 100.715 114.836 98.9927 116.967 98.9927H120.178C122.309 98.9927 124.031 100.715 124.031 102.846V104.247H124.002Z" stroke="#3A3842" stroke-width="2" stroke-miterlimit="10" stroke-linecap="round" stroke-linejoin="round"/>
<path d="M112.705 83.5217H86.0539C85.8496 83.5217 85.6453 83.3466 85.6453 83.113V80.7778C85.6453 80.5735 85.8204 80.3691 86.0539 80.3691H112.705C112.909 80.3691 113.114 80.5443 113.114 80.7778V83.113C113.114 83.3466 112.938 83.5217 112.705 83.5217Z" fill="#EDBEC4"/>
<path d="M102.838 84.6893H95.9204C95.716 84.6893 95.5701 84.5142 95.5701 84.339V79.581C95.5701 79.3766 95.7452 79.2307 95.9204 79.2307H102.838C103.043 79.2307 103.189 79.4058 103.189 79.581V84.339C103.218 84.5434 103.043 84.6893 102.838 84.6893Z" fill="#EDBEC4"/>
<path d="M111.946 80.7778H86.842V83.113H111.946V80.7778Z" fill="#3A3842"/>
<path d="M102.897 79.902H95.8911V83.9887H102.897V79.902Z" fill="#3A3842"/>
<path d="M87.4258 81.9454C87.4258 81.6243 87.6885 81.3616 88.0096 81.3616H110.778C111.099 81.3616 111.362 81.6243 111.362 81.9454C111.362 82.2665 111.099 82.5292 110.778 82.5292H88.0096C87.6885 82.5292 87.4258 82.2665 87.4258 81.9454Z" fill="#33313A"/>
<path d="M112.705 90.9069H86.0539C85.8496 90.9069 85.6453 90.7318 85.6453 90.4983V88.163C85.6453 87.9587 85.8204 87.7544 86.0539 87.7544H112.705C112.909 87.7544 113.114 87.9295 113.114 88.163V90.4983C113.114 90.7318 112.938 90.9069 112.705 90.9069Z" fill="#EDBEC4"/>
<path d="M102.838 92.1038H95.9204C95.716 92.1038 95.5701 91.9286 95.5701 91.7535V86.9954C95.5701 86.7911 95.7452 86.6451 95.9204 86.6451H102.838C103.043 86.6451 103.189 86.8203 103.189 86.9954V91.7535C103.218 91.9286 103.043 92.1038 102.838 92.1038Z" fill="#EDBEC4"/>
<path d="M111.946 88.1922H86.842V90.5275H111.946V88.1922Z" fill="#3A3842"/>
<path d="M102.897 87.3165H95.8911V91.4032H102.897V87.3165Z" fill="#3A3842"/>
<path d="M87.4258 89.3598C87.4258 89.0387 87.6885 88.776 88.0096 88.776H110.778C111.099 88.776 111.362 89.0387 111.362 89.3598C111.362 89.6809 111.099 89.9437 110.778 89.9437H88.0096C87.6885 89.9437 87.4258 89.6809 87.4258 89.3598Z" fill="#33313A"/>
</svg>
