<svg width="76" height="108" viewBox="0 0 76 108" fill="none" xmlns="http://www.w3.org/2000/svg">
<path d="M36.7765 73.7651C34.8776 74.0075 33.3625 76.6741 33.0797 78.876C32.9989 79.5225 32.9585 80.1487 32.9585 80.7951C32.9585 82.8961 33.4029 84.896 34.211 86.9363C35.019 88.9363 36.2311 90.9766 37.6856 92.1483C39.1603 90.9766 40.3522 88.9363 41.1602 86.9363C41.9683 84.896 42.4127 82.8961 42.4127 80.7951C42.4127 80.1487 42.3723 79.5225 42.2915 78.876C42.0087 76.6539 40.4936 74.0075 38.5947 73.7651C38.0088 73.7045 37.3826 73.7045 36.7765 73.7651Z" stroke="#601B23" stroke-width="2" stroke-miterlimit="10" stroke-linecap="round" stroke-linejoin="round"/>
<path d="M36.7765 73.7651C34.8776 74.0075 33.3625 76.6741 33.0797 78.876C32.9989 79.5225 32.9585 80.1487 32.9585 80.7951C32.9585 82.8961 33.4029 84.896 34.211 86.9363C35.019 88.9363 36.2311 90.9766 37.6856 92.1483C39.1603 90.9766 40.3522 88.9363 41.1602 86.9363C41.9683 84.896 42.4127 82.8961 42.4127 80.7951C42.4127 80.1487 42.3723 79.5225 42.2915 78.876C42.0087 76.6539 40.4936 74.0075 38.5947 73.7651C38.0088 73.7045 37.3826 73.7045 36.7765 73.7651Z" fill="#E36535"/>
<path d="M46.1701 86.4313C46.1701 90.1887 45.3822 93.7846 43.9277 97.441C43.8873 97.5622 43.8267 97.6834 43.7661 97.8248C42.3116 101.299 40.2309 104.774 37.7057 106.814C35.0998 104.713 32.9786 101.097 31.5039 97.5218C31.4837 97.5016 31.4837 97.4814 31.4635 97.441C30.009 93.7846 29.2212 90.1887 29.2212 86.4313C29.2212 85.2798 29.302 84.1485 29.4434 82.9769C29.9282 79.0578 32.5948 74.3307 35.928 73.8257C35.9684 73.8257 36.0088 73.8055 36.0492 73.8055C37.0997 73.6843 38.1704 73.6843 39.2208 73.7853C39.2612 73.7853 39.3218 73.7853 39.3622 73.8055C42.7561 74.2297 45.4832 79.0174 45.9681 82.9769C46.0893 84.1485 46.1701 85.2798 46.1701 86.4313Z" fill="#FD868C"/>
<path d="M46.1701 86.4313C46.1701 90.1887 45.3822 93.7846 43.9277 97.441C43.8873 97.5622 43.8267 97.6834 43.7661 97.8248C42.3116 101.299 40.2309 104.774 37.7057 106.814C35.0998 104.713 32.9786 101.097 31.5039 97.5218C31.4837 97.5016 31.4837 97.4814 31.4635 97.441C30.009 93.7846 29.2212 90.1887 29.2212 86.4313C29.2212 85.2798 29.302 84.1485 29.4434 82.9769C29.9282 79.0578 32.5948 74.3307 35.928 73.8257C35.9684 73.8257 36.0088 73.8055 36.0492 73.8055C37.0997 73.6843 38.1704 73.6843 39.2208 73.7853C39.2612 73.7853 39.3218 73.7853 39.3622 73.8055C42.7561 74.2297 45.4832 79.0174 45.9681 82.9769C46.0893 84.1485 46.1701 85.2798 46.1701 86.4313Z" stroke="#601B23" stroke-width="2" stroke-miterlimit="10" stroke-linecap="round" stroke-linejoin="round"/>
<path d="M13.3229 42.9177L6.7373 45.4832V32.9786L26.9588 17.2014V40.8571L22.0701 43.4227C19.4641 42.049 16.2925 41.7662 13.3229 42.9177Z" fill="#C11A4D"/>
<path d="M4.59591 48.7559C2.53538 45.7661 1.34351 42.2309 1.34351 38.4532C1.34351 33.6655 3.22222 29.2818 6.35343 25.9082C9.48463 29.2818 11.3836 33.6655 11.4038 38.4532C11.4038 42.2511 10.2119 45.7661 8.17154 48.7559H4.59591Z" fill="#CF264D"/>
<path opacity="0.72" d="M6.7373 45.4833L13.2825 42.9379C13.3633 41.2006 13.2421 39.4229 12.9189 37.6451C12.4341 34.9786 11.525 32.4736 10.2725 30.2111L6.7373 32.9786V45.4833V45.4833Z" fill="#A5143A"/>
<path opacity="0.23" d="M7.58576 36.4735L26.979 21.3629V17.2014L6.7373 32.9584V45.4832L7.58576 45.16V36.4735Z" fill="#F4A15D"/>
<path opacity="0.72" d="M18.9187 42.352C20.0298 42.5338 21.0802 42.8975 22.0701 43.4227L26.9588 40.8571V17.2014L18.4339 23.8476C18.0096 26.4132 17.8076 29.1 17.8076 31.8676C17.8278 35.524 18.2116 39.0592 18.9187 42.352Z" fill="#A5143A"/>
<path d="M13.3229 42.9177L6.7373 45.4832V32.9786L26.9588 17.2014V40.8571L22.0701 43.4227C19.4641 42.049 16.2925 41.7662 13.3229 42.9177Z" stroke="#601B23" stroke-width="2" stroke-miterlimit="10" stroke-linecap="round" stroke-linejoin="round"/>
<path d="M4.59591 48.7559C2.53538 45.7661 1.34351 42.2309 1.34351 38.4532C1.34351 33.6655 3.22222 29.2818 6.35343 25.9082C9.48463 29.2818 11.3836 33.6655 11.4038 38.4532C11.4038 42.2511 10.2119 45.7661 8.17154 48.7559H4.59591Z" fill="#CF264D"/>
<path opacity="0.23" d="M6.05033 25.9082C6.29274 26.1708 6.53516 26.4536 6.75737 26.7365C4.65644 29.9687 3.44436 33.7665 3.42416 37.8068C3.42416 41.8066 4.0302 45.5439 6.09073 48.7761H4.23221C2.19188 45.7863 1 42.251 1 38.4734C1.0202 33.6655 2.91912 29.2818 6.05033 25.9082Z" fill="#F4A15D"/>
<path opacity="0.32" d="M6.05033 25.9082C6.13113 25.989 6.21194 26.09 6.29275 26.191C3.92919 29.6858 2.5757 33.7867 2.5555 38.1906C2.5555 42.0086 3.58577 45.6045 5.38369 48.7761H4.23221C2.19188 45.7863 1 42.251 1 38.4734C1.0202 33.6655 2.91912 29.2818 6.05033 25.9082Z" fill="#F4A15D"/>
<path opacity="0.37" d="M11.4039 38.4532C11.4039 33.6655 9.50493 29.302 6.35353 25.9082C6.11111 26.1708 5.8687 26.4536 5.64648 26.7365C7.74742 29.9687 8.9595 33.7665 8.9797 37.8068C8.9797 41.8066 7.80802 45.5439 5.74749 48.7761H8.17165C10.212 45.7661 11.4039 42.2308 11.4039 38.4532Z" fill="#A5143A"/>
<path opacity="0.72" d="M11.4036 38.4532C11.4036 33.6655 9.50466 29.302 6.35326 25.9082C6.27245 25.989 6.19164 26.09 6.11084 26.191C8.47439 29.6858 9.82788 33.7867 9.84808 38.1906C9.84808 42.0086 8.81781 45.6045 7.0199 48.7761H8.17137C10.2117 45.7661 11.4036 42.2308 11.4036 38.4532Z" fill="#A5143A"/>
<path opacity="0.37" d="M6.35353 25.9082C6.11111 26.1708 5.8687 26.4536 5.64648 26.7365C7.74742 29.9687 8.9595 33.7665 8.9797 37.8068C8.9797 41.8066 7.80802 45.5439 5.74749 48.7761H8.17165C10.212 45.7863 11.4039 42.251 11.4039 38.4734C11.3837 33.6655 9.48473 29.2818 6.35353 25.9082Z" fill="#A5143A"/>
<path opacity="0.72" d="M6.35326 25.9082C6.27245 25.989 6.19164 26.09 6.11084 26.191C8.47439 29.6858 9.82788 33.7867 9.84808 38.1906C9.84808 42.0086 8.81781 45.6045 7.0199 48.7761H8.17137C10.2117 45.7863 11.4036 42.251 11.4036 38.4734C11.3834 33.6655 9.48446 29.2818 6.35326 25.9082Z" fill="#A5143A"/>
<path d="M8.65638 29.5444C7.90894 28.2314 7.02008 27.0193 5.98982 25.888C4.95955 26.9991 4.07069 28.2314 3.32324 29.5444H8.65638Z" fill="#601B23"/>
<path d="M4.59591 48.7559C2.53538 45.7661 1.34351 42.2309 1.34351 38.4532C1.34351 33.6655 3.22222 29.2818 6.35343 25.9082C9.48463 29.2818 11.3836 33.6655 11.4038 38.4532C11.4038 42.2511 10.2119 45.7661 8.17154 48.7559H4.59591Z" stroke="#601B23" stroke-width="2" stroke-miterlimit="10" stroke-linecap="round" stroke-linejoin="round"/>
<path d="M30.8373 64.3513C30.8373 64.3513 28.393 64.8765 24.878 68.3915C23.6053 69.6642 21.6053 72.25 20.1307 74.2095C19.5246 75.0176 18.2317 74.6135 18.2115 73.6035L17.7267 52.0891C17.6257 51.483 17.7873 50.8568 18.1711 50.3922L23.4639 43.8065L30.8373 64.3513Z" fill="#CF264D"/>
<path opacity="0.32" d="M18.1711 74.0277C19.3226 73.8661 20.1913 72.8762 20.2115 71.7045L20.4337 51.7053C20.3327 51.0992 20.4943 50.473 20.8781 50.0083L24.1911 45.8671L23.4437 43.8065L18.1711 50.372C17.7873 50.8568 17.6257 51.4628 17.7267 52.0689L18.1711 74.0277Z" fill="#F4A15D"/>
<path opacity="0.72" d="M30.8373 64.3513L23.4639 43.8065L20.5347 47.463C22.1104 53.5234 24.5951 59.6848 27.9485 65.826C29.7263 64.5937 30.8373 64.3513 30.8373 64.3513Z" fill="#A5143A"/>
<path d="M30.8373 64.3513C30.8373 64.3513 28.393 64.8765 24.878 68.3915C23.6053 69.6642 21.6053 72.25 20.1307 74.2095C19.5246 75.0176 18.2317 74.6135 18.2115 73.6035L17.7267 52.0891C17.6257 51.483 17.7873 50.8568 18.1711 50.3922L23.4639 43.8065L30.8373 64.3513Z" stroke="#601B23" stroke-width="2" stroke-miterlimit="10" stroke-linecap="round" stroke-linejoin="round"/>
<path d="M2.67676 46.0893H9.32299" stroke="#601B23" stroke-width="2" stroke-miterlimit="10" stroke-linecap="round" stroke-linejoin="round"/>
<path d="M4.59591 48.7559C2.53538 45.7661 1.34351 42.2309 1.34351 38.4532C1.34351 33.6655 3.22222 29.2818 6.35343 25.9082C9.48463 29.2818 11.3836 33.6655 11.4038 38.4532C11.4038 42.2511 10.2119 45.7661 8.17154 48.7559H4.59591Z" fill="#CF264D"/>
<path d="M4.59591 48.7559C2.53538 45.7661 1.34351 42.2309 1.34351 38.4532C1.34351 33.6655 3.22222 29.2818 6.35343 25.9082C9.48463 29.2818 11.3836 33.6655 11.4038 38.4532C11.4038 42.2511 10.2119 45.7661 8.17154 48.7559H4.59591Z" fill="#CF264D"/>
<path opacity="0.23" d="M6.05033 25.9082C6.29274 26.1708 6.53516 26.4536 6.75737 26.7365C4.65644 29.9687 3.44436 33.7665 3.42416 37.8068C3.42416 41.8066 4.0302 45.5439 6.09073 48.7761H4.23221C2.19188 45.7863 1 42.251 1 38.4734C1.0202 33.6655 2.91912 29.2818 6.05033 25.9082Z" fill="#F4A15D"/>
<path opacity="0.32" d="M6.05033 25.9082C6.13113 25.989 6.21194 26.09 6.29275 26.191C3.92919 29.6858 2.5757 33.7867 2.5555 38.1906C2.5555 42.0086 3.58577 45.6045 5.38369 48.7761H4.23221C2.19188 45.7863 1 42.251 1 38.4734C1.0202 33.6655 2.91912 29.2818 6.05033 25.9082Z" fill="#F4A15D"/>
<path opacity="0.37" d="M11.4039 38.4532C11.4039 33.6655 9.50493 29.302 6.35353 25.9082C6.11111 26.1708 5.8687 26.4536 5.64648 26.7365C7.74742 29.9687 8.9595 33.7665 8.9797 37.8068C8.9797 41.8066 7.80802 45.5439 5.74749 48.7761H8.17165C10.212 45.7661 11.4039 42.2308 11.4039 38.4532Z" fill="#A5143A"/>
<path opacity="0.72" d="M11.4036 38.4532C11.4036 33.6655 9.50466 29.302 6.35326 25.9082C6.27245 25.989 6.19164 26.09 6.11084 26.191C8.47439 29.6858 9.82788 33.7867 9.84808 38.1906C9.84808 42.0086 8.81781 45.6045 7.0199 48.7761H8.17137C10.2117 45.7661 11.4036 42.2308 11.4036 38.4532Z" fill="#A5143A"/>
<path opacity="0.37" d="M6.35353 25.9082C6.11111 26.1708 5.8687 26.4536 5.64648 26.7365C7.74742 29.9687 8.9595 33.7665 8.9797 37.8068C8.9797 41.8066 7.80802 45.5439 5.74749 48.7761H8.17165C10.212 45.7863 11.4039 42.251 11.4039 38.4734C11.3837 33.6655 9.48473 29.2818 6.35353 25.9082Z" fill="#A5143A"/>
<path opacity="0.72" d="M6.35326 25.9082C6.27245 25.989 6.19164 26.09 6.11084 26.191C8.47439 29.6858 9.82788 33.7867 9.84808 38.1906C9.84808 42.0086 8.81781 45.6045 7.0199 48.7761H8.17137C10.2117 45.7863 11.4036 42.251 11.4036 38.4734C11.3834 33.6655 9.48446 29.2818 6.35326 25.9082Z" fill="#A5143A"/>
<path d="M9.02015 29.5444C8.27271 28.2314 7.38385 27.0193 6.35358 25.888C5.32332 26.9991 4.43446 28.2314 3.68701 29.5444H9.02015Z" fill="#601B23"/>
<path d="M4.59591 48.7559C2.53538 45.7661 1.34351 42.2309 1.34351 38.4532C1.34351 33.6655 3.22222 29.2818 6.35343 25.9082C9.48463 29.2818 11.3836 33.6655 11.4038 38.4532C11.4038 42.2511 10.2119 45.7661 8.17154 48.7559H4.59591Z" stroke="#601B23" stroke-width="2" stroke-miterlimit="10" stroke-linecap="round" stroke-linejoin="round"/>
<path d="M2.67676 46.0893H9.32299" stroke="#601B23" stroke-width="2" stroke-miterlimit="10" stroke-linecap="round" stroke-linejoin="round"/>
<path d="M60.8969 42.9177L67.4825 45.4832V32.9786L47.261 17.2014V40.8571L52.1497 43.4227C54.7557 42.049 57.9273 41.7662 60.8969 42.9177Z" fill="#C11A4D"/>
<path opacity="0.72" d="M67.4825 45.4833L60.9373 42.9379C60.8565 41.2006 60.9777 39.4229 61.3009 37.6451C61.7858 34.9786 62.6948 32.4736 63.9473 30.2111L67.4825 32.9786V45.4833Z" fill="#A5143A"/>
<path opacity="0.23" d="M66.6542 36.4735L47.261 21.3629V17.2014L67.4825 32.9584V45.4832L66.6542 45.16V36.4735Z" fill="#F4A15D"/>
<path opacity="0.72" d="M55.3011 42.352C54.19 42.5338 53.1396 42.8975 52.1497 43.4227L47.261 40.8571V17.2014L55.7859 23.8476C56.2102 26.4132 56.4122 29.1 56.4122 31.8676C56.4122 35.524 56.0284 39.0592 55.3011 42.352Z" fill="#A5143A"/>
<path d="M60.8969 42.9177L67.4825 45.4832V32.9786L47.261 17.2014V40.8571L52.1497 43.4227C54.7557 42.049 57.9273 41.7662 60.8969 42.9177Z" stroke="#601B23" stroke-width="2" stroke-miterlimit="10" stroke-linecap="round" stroke-linejoin="round"/>
<path d="M43.4026 64.3513C43.4026 64.3513 45.8469 64.8765 49.362 68.3915C50.6347 69.6642 52.6346 72.25 54.1093 74.2095C54.7153 75.0176 56.0082 74.6135 56.0284 73.6035L56.5132 52.0891C56.6142 51.483 56.4526 50.8568 56.0688 50.3922L50.7761 43.8065L43.4026 64.3513Z" fill="#CF264D"/>
<path opacity="0.72" d="M56.0486 74.0277C54.8971 73.8661 54.0284 72.8762 54.0082 71.7045L53.786 51.7053C53.887 51.0992 53.7254 50.473 53.3416 50.0083L50.0286 45.8671L50.776 43.8065L56.0688 50.3922C56.4526 50.877 56.6142 51.483 56.5132 52.0891L56.0486 74.0277Z" fill="#A5143A"/>
<path opacity="0.72" d="M43.4026 64.3513L50.7761 43.8065L53.7052 47.463C52.1295 53.5234 49.6448 59.6848 46.2914 65.826C44.5137 64.5937 43.4026 64.3513 43.4026 64.3513Z" fill="#A5143A"/>
<path d="M43.4026 64.3513C43.4026 64.3513 45.8469 64.8765 49.362 68.3915C50.6347 69.6642 52.6346 72.25 54.1093 74.2095C54.7153 75.0176 56.0082 74.6135 56.0284 73.6035L56.5132 52.0891C56.6142 51.483 56.4526 50.8568 56.0688 50.3922L50.7761 43.8065L43.4026 64.3513Z" stroke="#601B23" stroke-width="2" stroke-miterlimit="10" stroke-linecap="round" stroke-linejoin="round"/>
<path d="M43.3014 75.9064C43.5236 73.5024 43.2004 71.2399 39.1602 65.2805C38.4935 64.3311 36.8976 64.3311 36.231 65.2805C32.1907 71.2601 31.8675 73.5226 32.0897 75.9064C32.1301 76.2094 32.6755 76.5528 33.019 76.4316C35.3421 75.2397 40.049 75.2397 42.3722 76.4316C42.7156 76.5528 43.261 76.2296 43.3014 75.9064Z" fill="#4E8280"/>
<g opacity="0.32">
<g opacity="0.32">
<g opacity="0.32">
<path opacity="0.32" d="M34.13 75.9064C33.9078 73.5024 34.231 71.2399 38.2713 65.2805C38.3925 65.0987 38.5541 64.9573 38.7157 64.8563C37.9481 64.3513 36.7764 64.4927 36.231 65.2805C32.1907 71.2601 31.8675 73.5226 32.0897 75.9064C32.1301 76.2094 32.6755 76.5528 33.019 76.4316C33.3624 76.27 33.7462 76.1084 34.1502 75.9872C34.1502 75.967 34.13 75.9468 34.13 75.9064Z" fill="#F4A15D"/>
</g>
<g opacity="0.32">
<path opacity="0.32" d="M38.7158 75.5832C40.1097 75.6842 41.4228 75.967 42.3723 76.4317C42.6753 76.5529 43.1601 76.27 43.2813 75.9872C41.948 75.6034 40.2915 75.462 38.7158 75.5832Z" fill="#F4A15D"/>
</g>
</g>
</g>
<path d="M36.9382 65.2805C36.8776 65.1997 36.817 65.1391 36.7563 65.0785C37.5038 64.3311 38.8977 64.4119 39.5037 65.2805C43.544 71.2601 43.8672 73.5226 43.645 75.9064C43.6046 76.2094 43.0591 76.5528 42.7157 76.4316C42.2511 76.1892 41.6855 76.0074 41.0794 75.866C41.3016 73.4823 40.9582 71.2197 36.9382 65.2805Z" fill="#37605D"/>
<path d="M43.3014 75.9064C43.5236 73.5024 43.2004 71.2399 39.1602 65.2805C38.4935 64.3311 36.8976 64.3311 36.231 65.2805C32.1907 71.2601 31.8675 73.5226 32.0897 75.9064C32.1301 76.2094 32.6755 76.5528 33.019 76.4316C35.3421 75.2397 40.049 75.2397 42.3722 76.4316C42.7156 76.5528 43.261 76.2296 43.3014 75.9064Z" stroke="#601B23" stroke-width="2" stroke-miterlimit="10" stroke-linecap="round" stroke-linejoin="round"/>
<path d="M42.2511 68.6542C51.7659 53.079 55.2203 37.7866 53.079 25.0395C51.2205 13.9692 45.2409 5.98972 37.6856 1C30.1303 5.98972 24.1507 13.9692 22.2922 25.0395C20.1509 37.7866 23.6255 53.079 33.1201 68.6542H42.2511Z" fill="#CF264D"/>
<path opacity="0.23" d="M29.5243 25.2617C30.7364 15.2419 33.8877 7.28257 38.13 1.32319C37.9886 1.22219 37.827 1.12118 37.6856 1.02017C30.1303 6.00989 24.1507 13.9894 22.2922 25.0597C20.1509 37.8067 23.6255 53.0991 33.1201 68.6743H35.0392C29.7667 53.0991 27.989 38.13 29.5243 25.2617Z" fill="#F4A15D"/>
<path opacity="0.37" d="M53.0792 25.0395C51.2409 14.05 45.3421 6.11094 37.8474 1.12122C39.2413 3.36356 41.019 6.59577 42.5139 10.6966C45.2411 18.1509 45.5441 24.2921 45.7057 28.1506C46.433 45.5035 39.7867 64.6947 38.3928 68.6743H42.2513C51.7661 53.0789 55.2205 37.7866 53.0792 25.0395Z" fill="#A5143A"/>
<path opacity="0.72" d="M53.0791 25.0395C51.2206 13.9692 45.241 5.98972 37.6857 1C37.4837 1.12121 37.3019 1.26262 37.0999 1.38383C39.9684 3.62617 42.1502 6.03013 43.8067 8.33308C58.6748 29.0192 44.4127 59.9878 42.4532 64.0887C42.3724 61.3009 42.0088 57.8465 40.9785 53.988C40.3119 51.5234 39.5038 49.3619 38.6958 47.5236C38.3927 54.3718 38.0897 61.2201 37.7867 68.0683H40.2917C40.2311 68.2703 40.1704 68.4521 40.0896 68.6542H42.2108C51.766 53.079 55.2204 37.7866 53.0791 25.0395Z" fill="#A5143A"/>
<path opacity="0.32" d="M24.8376 28.5546C25.1205 25.3224 26.1709 14.8177 32.6555 6.19173C33.6858 4.83824 35.2211 2.99992 35.0999 2.89892C34.9181 2.73731 31.3626 5.94931 28.8375 9.36333C25.6659 13.6258 23.3427 18.8579 22.3125 25.0395C20.1711 37.7866 23.6458 53.0789 33.1404 68.6541H33.9686C31.3627 63.4624 29.6455 58.7757 28.4739 55.0789C27.7062 52.5941 26.3527 48.1902 25.5043 42.2914C24.9588 38.332 24.3528 34.0897 24.8376 28.5546Z" fill="#F4A15D"/>
<path opacity="0.72" d="M38.7765 32.716C41.8112 32.716 44.2712 30.256 44.2712 27.2213C44.2712 24.1866 41.8112 21.7265 38.7765 21.7265C35.7418 21.7265 33.2817 24.1866 33.2817 27.2213C33.2817 30.256 35.7418 32.716 38.7765 32.716Z" fill="#A5143A" stroke="#A5143A" stroke-width="2" stroke-miterlimit="10" stroke-linecap="round" stroke-linejoin="round"/>
<path d="M42.2511 68.6542C51.7659 53.079 55.2203 37.7866 53.079 25.0395C51.2205 13.9692 45.2409 5.98972 37.6856 1C30.1303 5.98972 24.1507 13.9692 22.2922 25.0395C20.1509 37.7866 23.6255 53.079 33.1201 68.6542H42.2511Z" stroke="#601B23" stroke-width="2" stroke-miterlimit="10" stroke-linecap="round" stroke-linejoin="round"/>
<path d="M37.6854 31.8676C40.7201 31.8676 43.1802 29.4075 43.1802 26.3728C43.1802 23.3382 40.7201 20.8781 37.6854 20.8781C34.6508 20.8781 32.1907 23.3382 32.1907 26.3728C32.1907 29.4075 34.6508 31.8676 37.6854 31.8676Z" fill="#ABCFD8"/>
<path opacity="0.93" d="M36.938 29.3828C38.7677 29.3828 40.251 27.8995 40.251 26.0698C40.251 24.2401 38.7677 22.7568 36.938 22.7568C35.1083 22.7568 33.625 24.2401 33.625 26.0698C33.625 27.8995 35.1083 29.3828 36.938 29.3828Z" fill="#E2F0F2"/>
<path d="M37.6854 31.8676C40.7201 31.8676 43.1802 29.4075 43.1802 26.3728C43.1802 23.3382 40.7201 20.8781 37.6854 20.8781C34.6508 20.8781 32.1907 23.3382 32.1907 26.3728C32.1907 29.4075 34.6508 31.8676 37.6854 31.8676Z" stroke="#601B23" stroke-width="2" stroke-miterlimit="10" stroke-linecap="round" stroke-linejoin="round"/>
<path d="M29.9282 7.96945C34.9583 6.23214 40.4733 6.23214 45.5034 7.98965C43.2207 5.22207 40.5743 2.89892 37.7057 1C34.8371 2.89892 32.1908 5.22207 29.9282 7.96945Z" fill="#601B23"/>
<path d="M29.9282 7.96945C34.9583 6.23214 40.4733 6.23214 45.5034 7.98965C43.2207 5.22207 40.5743 2.89892 37.7057 1C34.8371 2.89892 32.1908 5.22207 29.9282 7.96945Z" stroke="#601B23" stroke-width="2" stroke-miterlimit="10" stroke-linecap="round" stroke-linejoin="round"/>
<path d="M37.6856 78.1083C37.9079 78.1083 38.0897 77.8659 38.1099 77.5427L39.625 52.8163C39.7866 50.2709 38.9785 47.9074 37.7867 47.3418C37.7058 47.3014 37.625 47.3014 37.5644 47.3418C36.3726 47.8872 35.5645 50.2507 35.7261 52.8163L37.2412 77.5427C37.2816 77.8659 37.4836 78.1083 37.6856 78.1083Z" fill="#BC1D4E"/>
<path opacity="0.74" d="M37.6856 78.1083C37.9079 78.1083 38.0897 77.8659 38.1099 77.5427L39.625 52.8163C39.7866 50.2709 38.9785 47.9074 37.7867 47.3418C37.7058 47.3014 37.625 47.3014 37.5644 47.3418C36.3726 47.8872 35.5645 50.2507 35.7261 52.8163L37.2412 77.5427C37.2816 77.8659 37.4836 78.1083 37.6856 78.1083Z" fill="#A5143A"/>
<g opacity="0.53">
<g opacity="0.53">
<g opacity="0.53">
<path opacity="0.53" d="M37.5845 47.3418C36.3926 47.8872 35.5845 50.2507 35.7461 52.8163L37.2612 77.5427C37.2814 77.8053 37.4026 78.0275 37.5643 78.0881V47.3418H37.5845Z" fill="#F4A15D"/>
</g>
<g opacity="0.53">
<path opacity="0.53" d="M37.5845 47.3418H37.8067C37.7259 47.3014 37.6451 47.3014 37.5845 47.3418Z" fill="#F4A15D"/>
</g>
</g>
</g>
<path d="M37.6856 78.1083C37.9079 78.1083 38.0897 77.8659 38.1099 77.5427L39.625 52.8163C39.7866 50.2709 38.9785 47.9074 37.7867 47.3418C37.7058 47.3014 37.625 47.3014 37.5644 47.3418C36.3726 47.8872 35.5645 50.2507 35.7261 52.8163L37.2412 77.5427C37.2816 77.8659 37.4836 78.1083 37.6856 78.1083Z" stroke="#601B23" stroke-width="2" stroke-miterlimit="10" stroke-linecap="round" stroke-linejoin="round"/>
<path d="M67.3413 48.7559C65.2808 45.7661 64.0889 42.2309 64.0889 38.4532C64.0889 33.6655 65.9676 29.2818 69.0988 25.9082C72.23 29.2818 74.1289 33.6655 74.1491 38.4532C74.1491 42.2511 72.9572 45.7661 70.9169 48.7559H67.3413Z" fill="#CF264D"/>
<path d="M67.3413 48.7559C65.2808 45.7661 64.0889 42.2309 64.0889 38.4532C64.0889 33.6655 65.9676 29.2818 69.0988 25.9082C72.23 29.2818 74.1289 33.6655 74.1491 38.4532C74.1491 42.2511 72.9572 45.7661 70.9169 48.7559H67.3413Z" fill="#CF264D"/>
<path opacity="0.23" d="M68.816 25.9082C69.0584 26.1708 69.3008 26.4536 69.523 26.7365C67.4221 29.9687 66.21 33.7665 66.1898 37.8068C66.1898 41.8066 66.7958 45.5439 68.8564 48.7761H66.9978C64.9575 45.7863 63.7656 42.251 63.7656 38.4734C63.7656 33.6655 65.6645 29.2818 68.816 25.9082Z" fill="#F4A15D"/>
<path opacity="0.32" d="M68.8159 25.9082C68.8968 25.989 68.9776 26.09 69.0584 26.191C66.6948 29.6858 65.3413 33.7867 65.3211 38.1906C65.3211 42.0086 66.3514 45.6045 68.1493 48.7761H66.9978C64.9575 45.7863 63.7656 42.251 63.7656 38.4734C63.7656 33.6655 65.6645 29.2818 68.8159 25.9082Z" fill="#F4A15D"/>
<path opacity="0.37" d="M74.149 38.4532C74.149 33.6655 72.25 29.302 69.0986 25.9082C68.8562 26.1708 68.6138 26.4536 68.3916 26.7365C70.4925 29.9687 71.7046 33.7665 71.7248 37.8068C71.7248 41.8066 70.5531 45.5439 68.4926 48.7761H70.9168C72.9571 45.7661 74.149 42.2308 74.149 38.4532Z" fill="#A5143A"/>
<path opacity="0.72" d="M74.1489 38.4532C74.1489 33.6655 72.25 29.302 69.0986 25.9082C69.0178 25.989 68.937 26.09 68.8562 26.191C71.2198 29.6858 72.5732 33.7867 72.5934 38.1906C72.5934 42.0086 71.5632 45.6045 69.7653 48.7761H70.9167C72.9571 45.7661 74.1489 42.2308 74.1489 38.4532Z" fill="#A5143A"/>
<path opacity="0.37" d="M69.0986 25.9082C68.8562 26.1708 68.6138 26.4536 68.3916 26.7365C70.4925 29.9687 71.7046 33.7665 71.7248 37.8068C71.7248 41.8066 70.5531 45.5439 68.4926 48.7761H70.9168C72.9571 45.7863 74.149 42.251 74.149 38.4734C74.149 33.6655 72.25 29.2818 69.0986 25.9082Z" fill="#A5143A"/>
<path opacity="0.72" d="M69.0986 25.9082C69.0178 25.989 68.937 26.09 68.8562 26.191C71.2198 29.6858 72.5732 33.7867 72.5934 38.1906C72.5934 42.0086 71.5632 45.6045 69.7653 48.7761H70.9167C72.9571 45.7863 74.1489 42.251 74.1489 38.4734C74.1489 33.6655 72.25 29.2818 69.0986 25.9082Z" fill="#A5143A"/>
<path d="M71.7855 29.5444C71.0381 28.2314 70.1492 27.0193 69.119 25.888C68.0887 26.9991 67.1998 28.2314 66.4524 29.5444H71.7855Z" fill="#601B23"/>
<path d="M67.3413 48.7559C65.2808 45.7661 64.0889 42.2309 64.0889 38.4532C64.0889 33.6655 65.9676 29.2818 69.0988 25.9082C72.23 29.2818 74.1289 33.6655 74.1491 38.4532C74.1491 42.2511 72.9572 45.7661 70.9169 48.7559H67.3413Z" stroke="#601B23" stroke-width="2" stroke-miterlimit="10" stroke-linecap="round" stroke-linejoin="round"/>
<path d="M65.8059 46.0893H72.4521" stroke="#601B23" stroke-width="2" stroke-miterlimit="10" stroke-linecap="round" stroke-linejoin="round"/>
<path opacity="0.41" d="M31.4636 7.2826C31.4636 7.2826 32.8373 5.12106 37.5038 1.48483C35.3423 4.41402 34.918 6.25233 34.7766 6.39374C33.403 6.65636 31.4636 7.2826 31.4636 7.2826Z" fill="white"/>
</svg>
