<svg width="130" height="170" viewBox="0 0 130 170" fill="none" xmlns="http://www.w3.org/2000/svg">
<path d="M113.5 56.6663H105.417V40.4997C105.417 18.1897 87.31 0.0830078 65 0.0830078C42.69 0.0830078 24.5833 18.1897 24.5833 40.4997V56.6663H16.5C7.60834 56.6663 0.333344 63.9413 0.333344 72.833V153.666C0.333344 162.558 7.60834 169.833 16.5 169.833H113.5C122.392 169.833 129.667 162.558 129.667 153.666V72.833C129.667 63.9413 122.392 56.6663 113.5 56.6663ZM65 129.416C56.1083 129.416 48.8333 122.141 48.8333 113.25C48.8333 104.358 56.1083 97.083 65 97.083C73.8917 97.083 81.1667 104.358 81.1667 113.25C81.1667 122.141 73.8917 129.416 65 129.416ZM90.0583 56.6663H39.9417V40.4997C39.9417 26.6772 51.1775 15.4413 65 15.4413C78.8225 15.4413 90.0583 26.6772 90.0583 40.4997V56.6663Z" fill="#424242"/>
</svg>
