<svg width="110" height="93" viewBox="0 0 110 93" fill="none" xmlns="http://www.w3.org/2000/svg">
<path d="M106.542 24.0494H94.8151L91.3577 4.63937H102.094L106.542 24.0494Z" fill="white"/>
<path d="M94.8147 24.0494H83.0878L80.6211 4.63937H91.3572L94.8147 24.0494Z" fill="#F5A623"/>
<path d="M83.0881 24.0494H71.3612L69.8853 4.63937H80.6214L83.0881 24.0494Z" fill="white"/>
<path d="M71.3613 24.0494H59.6344L59.1492 4.63937H69.8853L71.3613 24.0494Z" fill="#F5A623"/>
<path d="M59.6341 24.0494H47.9072L48.4127 4.63937H59.1488L59.6341 24.0494Z" fill="white"/>
<path d="M47.9073 24.0494H36.1804L37.6766 4.63937H48.4128L47.9073 24.0494Z" fill="#F5A623"/>
<path d="M36.1805 24.0494H24.4536L26.9203 4.63937H37.6767L36.1805 24.0494Z" fill="white"/>
<path d="M24.4534 24.0494H12.7266L16.184 4.63937H26.9201L24.4534 24.0494Z" fill="#F5A623"/>
<path d="M12.7269 24.0494H1L5.44813 4.63937H16.1843L12.7269 24.0494Z" fill="white"/>
<path d="M39.6177 31.409H5.448V79.1253H39.6177V31.409Z" fill="#F5969C"/>
<path opacity="0.18" d="M34.2597 69.4203H10.8059V70.6536H34.2597V69.4203Z" fill="#282828" stroke="#282828" stroke-width="2" stroke-miterlimit="10" stroke-linecap="round" stroke-linejoin="round"/>
<path d="M37.9801 43.3583H32.8647V45.7239H37.9801V43.3583Z" fill="#DF747C"/>
<path d="M8.86497 39.2336H5.448V41.5992H8.86497V39.2336Z" fill="#DF747C"/>
<path d="M40.0019 46.3304H36.3625V48.696H40.0019V46.3304Z" fill="#DF747C"/>
<path d="M39.2741 71.4623H36.7063V73.8279H39.2741V71.4623Z" fill="#DF747C"/>
<path d="M19.5809 71.4623H14.4656V73.8279H19.5809V71.4623Z" fill="#DF747C"/>
<path d="M16.7503 74.4345H11.635V76.8001H16.7503V74.4345Z" fill="#DF747C"/>
<path d="M39.8199 31.409H5.448V79.1253H39.8199V31.409Z" stroke="#2D255E" stroke-width="2" stroke-miterlimit="10" stroke-linecap="round" stroke-linejoin="round"/>
<path d="M33.0465 33.0265H12.019V67.8028H33.0465V33.0265Z" fill="#66CDFD"/>
<path d="M25.5661 65.8213H17.8223C17.519 65.8213 17.2764 65.5787 17.2764 65.2754V65.0328C17.2764 64.7295 17.519 64.4869 17.8223 64.4869H25.5661C25.8693 64.4869 26.112 64.7295 26.112 65.0328V65.2754C26.1322 65.5787 25.8693 65.8213 25.5661 65.8213Z" fill="#3297D9"/>
<path d="M23.3618 65.5787H20.0662V67.9645H23.3618V65.5787Z" fill="#3297D9"/>
<path d="M29.2052 68.0252H27.5876V60.3825C27.5876 59.9377 27.9516 59.5737 28.3964 59.5737C28.8412 59.5737 29.2052 59.9377 29.2052 60.3825V68.0252Z" fill="#3297D9"/>
<path d="M16.0428 68.0252H14.4253V60.3825C14.4253 59.9377 14.7892 59.5737 15.234 59.5737C15.6789 59.5737 16.0428 59.9377 16.0428 60.3825V68.0252Z" fill="#3297D9"/>
<path opacity="0.3" d="M32.2783 67.8027L33.0466 66.7109V52.0523L22.0273 67.8027H32.2783Z" fill="white"/>
<path opacity="0.3" d="M20.6323 67.8028L33.0466 50.0911V46.7753L18.3274 67.8028H20.6323Z" fill="white"/>
<path opacity="0.3" d="M16.5079 67.8028L33.0469 44.1873V42.5293L15.3555 67.8028H16.5079Z" fill="white"/>
<path d="M33.0465 33.0265H12.019V67.8028H33.0465V33.0265Z" stroke="#2D255E" stroke-width="2" stroke-miterlimit="10" stroke-linecap="round" stroke-linejoin="round"/>
<path d="M34.2597 67.8028H10.8059V70.2291H34.2597V67.8028Z" fill="#D49D7F"/>
<path d="M34.2597 67.8028H10.8059V70.2291H34.2597V67.8028Z" stroke="#2D255E" stroke-width="2" stroke-miterlimit="10" stroke-linecap="round" stroke-linejoin="round"/>
<path d="M67.7146 91.2638L67.7146 32.1037L39.8127 32.1037L39.8127 91.2638H67.7146Z" fill="#D49D7F"/>
<path d="M67.7146 91.2638L67.7146 32.1037L39.8127 32.1037L39.8127 91.2638H67.7146Z" stroke="#2D255E" stroke-width="2" stroke-miterlimit="10" stroke-linecap="round" stroke-linejoin="round"/>
<path d="M64.6891 35.4123H42.8528V76.3957H64.6891V35.4123Z" fill="#66CDFD"/>
<path opacity="0.3" d="M64.8915 76.5979V57.1071L53.6499 76.5979H64.8915Z" fill="white"/>
<path opacity="0.3" d="M52.3152 76.3958L64.689 54.9639V48.2513L48.4534 76.3958H52.3152Z" fill="white"/>
<path opacity="0.3" d="M46.654 76.3958L64.6891 45.1376V42.9539L45.4004 76.3958H46.654Z" fill="white"/>
<path d="M64.6891 35.4123H42.8528V76.3957H64.6891V35.4123Z" stroke="#2D255E" stroke-width="2" stroke-miterlimit="10" stroke-linecap="round" stroke-linejoin="round"/>
<path d="M41.397 79.1253H1.60645V91.2566H41.397V79.1253Z" fill="#DB6B7B"/>
<path d="M3.30482 79.1253H1.60645V91.2566H3.30482V79.1253Z" fill="#CE5569"/>
<path d="M41.0332 79.1253H40.0425V91.2566H41.0332V79.1253Z" fill="#CE5569"/>
<path d="M41.397 79.1253H1.60645V91.2566H41.397V79.1253Z" stroke="#2D255E" stroke-width="2" stroke-miterlimit="10" stroke-linecap="round" stroke-linejoin="round"/>
<path d="M67.8154 79.1424L101.985 79.1424L101.985 31.4261L67.8154 31.4261L67.8154 79.1424Z" fill="#F5969C"/>
<path d="M99.1822 74.4345H94.0669V76.8001H99.1822V74.4345Z" fill="#DF747C"/>
<path d="M72.9181 74.4345H67.8027V76.8001H72.9181V74.4345Z" fill="#DF747C"/>
<path d="M96.1088 71.4623H90.9934V73.8279H96.1088V71.4623Z" fill="#DF747C"/>
<path d="M74.4952 38.2025H71.3613V40.5681H74.4952V38.2025Z" fill="#DF747C"/>
<path d="M70.7345 61.1306H67.6006V63.4962H70.7345V61.1306Z" fill="#DF747C"/>
<path d="M67.6132 79.1424L101.985 79.1424L101.985 31.4261L67.6132 31.4261L67.6132 79.1424Z" stroke="#2D255E" stroke-width="2" stroke-miterlimit="10" stroke-linecap="round" stroke-linejoin="round"/>
<path d="M95.4013 33.0265H74.3738V67.8028H95.4013V33.0265Z" fill="#66CDFD"/>
<path d="M81.8545 65.8213H89.5983C89.9016 65.8213 90.1442 65.5787 90.1442 65.2754V65.0328C90.1442 64.7295 89.9016 64.4869 89.5983 64.4869H81.8545C81.5512 64.4869 81.3086 64.7295 81.3086 65.0328V65.2754C81.3086 65.5787 81.5512 65.8213 81.8545 65.8213Z" fill="#3297D9"/>
<path d="M84.085 67.9691L87.3806 67.9691L87.3806 65.5833L84.085 65.5833L84.085 67.9691Z" fill="#3297D9"/>
<path d="M78.2354 68.0252H79.8529V60.3825C79.8529 59.9377 79.4889 59.5737 79.0441 59.5737C78.5993 59.5737 78.2354 59.9377 78.2354 60.3825V68.0252Z" fill="#3297D9"/>
<path d="M91.3779 68.0252H92.9954V60.3825C92.9954 59.9377 92.6315 59.5737 92.1867 59.5737C91.7419 59.5737 91.3779 59.9377 91.3779 60.3825V68.0252Z" fill="#3297D9"/>
<path opacity="0.3" d="M94.6532 67.8027L95.4013 66.7109V52.0523L84.3821 67.8027H94.6532Z" fill="white"/>
<path opacity="0.3" d="M83.0073 67.8028L95.4014 50.0911V46.7753L80.6821 67.8028H83.0073Z" fill="white"/>
<path opacity="0.3" d="M78.8624 67.8028L95.4014 44.1873V42.5293L77.71 67.8028H78.8624Z" fill="white"/>
<path d="M95.4013 33.0265H74.3738V67.8028H95.4013V33.0265Z" stroke="#2D255E" stroke-width="2" stroke-miterlimit="10" stroke-linecap="round" stroke-linejoin="round"/>
<path opacity="0.18" d="M96.6144 69.4203H73.1606V70.6536H96.6144V69.4203Z" fill="#282828" stroke="#282828" stroke-width="2" stroke-miterlimit="10" stroke-linecap="round" stroke-linejoin="round"/>
<path d="M73.1734 70.2321L96.6272 70.2321L96.6272 67.8059L73.1734 67.8059L73.1734 70.2321Z" fill="#D49D7F"/>
<path d="M73.1734 70.2321L96.6272 70.2321L96.6272 67.8059L73.1734 67.8059L73.1734 70.2321Z" stroke="#2D255E" stroke-width="2" stroke-miterlimit="10" stroke-linecap="round" stroke-linejoin="round"/>
<path d="M66.346 91.2736L105.813 91.2736L105.813 79.1424L66.346 79.1424L66.346 91.2736Z" fill="#DB6B7B"/>
<path d="M67.8229 79.1253H66.3672V91.2566H67.8229V79.1253Z" fill="#CE5569"/>
<path d="M66.346 91.2736L105.813 91.2736L105.813 79.1424L66.346 79.1424L66.346 91.2736Z" stroke="#2D255E" stroke-width="2" stroke-miterlimit="10" stroke-linecap="round" stroke-linejoin="round"/>
<path d="M46.7751 64.123C46.2696 64.123 45.8652 63.7186 45.8652 63.2131V53.4475C45.8652 52.942 46.2696 52.5376 46.7751 52.5376C47.2805 52.5376 47.6849 52.942 47.6849 53.4475V63.2131C47.6849 63.7186 47.2805 64.123 46.7751 64.123Z" fill="#2D255E"/>
<path opacity="0.18" d="M94.8149 25.2625H83.088H71.3612H59.6343H47.9074H36.1805H24.4536H12.7268H5.448V37.6161C5.89281 37.7375 6.37806 37.7981 6.86331 37.7981C10.0983 37.7981 12.7268 35.1697 12.7268 31.9347C12.7268 35.1697 15.3552 37.7981 18.5902 37.7981C21.8252 37.7981 24.4536 35.1697 24.4536 31.9347C24.4536 35.1697 27.0821 37.7981 30.3171 37.7981C33.5521 37.7981 36.1805 35.1697 36.1805 31.9347C36.1805 35.1697 38.8089 37.7981 42.0439 37.7981C45.2789 37.7981 47.9074 35.1697 47.9074 31.9347C47.9074 35.1697 50.5358 37.7981 53.7708 37.7981C57.0058 37.7981 59.6343 35.1697 59.6343 31.9347C59.6343 35.1697 62.2627 37.7981 65.4977 37.7981C68.7327 37.7981 71.3612 35.1697 71.3612 31.9347C71.3612 35.1697 73.9896 37.7981 77.2246 37.7981C80.4596 37.7981 83.088 35.1697 83.088 31.9347C83.088 35.1697 85.7165 37.7981 88.9515 37.7981C92.1865 37.7981 94.8149 35.1697 94.8149 31.9347C94.8149 35.1697 97.4433 37.7981 100.678 37.7981C101.123 37.7981 101.568 37.7375 101.972 37.6566V25.2625H94.8149Z" fill="#282828" stroke="#282828" stroke-width="2" stroke-miterlimit="10" stroke-linecap="round" stroke-linejoin="round"/>
<path d="M88.9516 36.585C85.7166 36.585 83.0881 33.9565 83.0881 30.7215V24.0493H94.815V30.7215C94.815 33.9565 92.1866 36.585 88.9516 36.585Z" fill="#D68821"/>
<path d="M77.2248 36.585C73.9898 36.585 71.3613 33.9565 71.3613 30.7215V24.0493H83.0882V30.7215C83.0882 33.9565 80.4598 36.585 77.2248 36.585Z" fill="#D6D6D6"/>
<path d="M65.4977 36.585C62.2627 36.585 59.6343 33.9565 59.6343 30.7215V24.0493H71.3612V30.7215C71.3612 33.9565 68.7327 36.585 65.4977 36.585Z" fill="#D68821"/>
<path d="M53.7707 36.585C50.5357 36.585 47.9072 33.9565 47.9072 30.7215V24.0493H59.6341V30.7215C59.6341 33.9565 57.0057 36.585 53.7707 36.585Z" fill="#D6D6D6"/>
<path d="M42.0439 36.585C38.8089 36.585 36.1804 33.9565 36.1804 30.7215V24.0493H47.9073V30.7215C47.9073 33.9565 45.2789 36.585 42.0439 36.585Z" fill="#D68821"/>
<path d="M30.3171 36.585C27.0821 36.585 24.4536 33.9565 24.4536 30.7215V24.0493H36.1805V30.7215C36.1805 33.9565 33.5521 36.585 30.3171 36.585Z" fill="#D6D6D6"/>
<path d="M18.59 36.585C15.355 36.585 12.7266 33.9565 12.7266 30.7215V24.0493H24.4534V30.7215C24.4534 33.9565 21.825 36.585 18.59 36.585Z" fill="#D68821"/>
<path d="M6.86344 36.585C3.62844 36.585 1 33.9565 1 30.7215V24.0493H12.7269V30.7215C12.7269 33.9565 10.0984 36.585 6.86344 36.585Z" fill="#D6D6D6"/>
<path d="M88.9516 36.585C85.7166 36.585 83.0881 33.9565 83.0881 30.7215V24.0493H94.815V30.7215C94.815 33.9565 92.1866 36.585 88.9516 36.585Z" stroke="#2D255E" stroke-width="2" stroke-miterlimit="10" stroke-linecap="round" stroke-linejoin="round"/>
<path d="M77.2248 36.585C73.9898 36.585 71.3613 33.9565 71.3613 30.7215V24.0493H83.0882V30.7215C83.0882 33.9565 80.4598 36.585 77.2248 36.585Z" stroke="#2D255E" stroke-width="2" stroke-miterlimit="10" stroke-linecap="round" stroke-linejoin="round"/>
<path d="M65.4977 36.585C62.2627 36.585 59.6343 33.9565 59.6343 30.7215V24.0493H71.3612V30.7215C71.3612 33.9565 68.7327 36.585 65.4977 36.585Z" stroke="#2D255E" stroke-width="2" stroke-miterlimit="10" stroke-linecap="round" stroke-linejoin="round"/>
<path d="M53.7707 36.585C50.5357 36.585 47.9072 33.9565 47.9072 30.7215V24.0493H59.6341V30.7215C59.6341 33.9565 57.0057 36.585 53.7707 36.585Z" stroke="#2D255E" stroke-width="2" stroke-miterlimit="10" stroke-linecap="round" stroke-linejoin="round"/>
<path d="M42.0439 36.585C38.8089 36.585 36.1804 33.9565 36.1804 30.7215V24.0493H47.9073V30.7215C47.9073 33.9565 45.2789 36.585 42.0439 36.585Z" stroke="#2D255E" stroke-width="2" stroke-miterlimit="10" stroke-linecap="round" stroke-linejoin="round"/>
<path d="M30.3171 36.585C27.0821 36.585 24.4536 33.9565 24.4536 30.7215V24.0493H36.1805V30.7215C36.1805 33.9565 33.5521 36.585 30.3171 36.585Z" stroke="#2D255E" stroke-width="2" stroke-miterlimit="10" stroke-linecap="round" stroke-linejoin="round"/>
<path d="M18.59 36.585C15.355 36.585 12.7266 33.9565 12.7266 30.7215V24.0493H24.4534V30.7215C24.4534 33.9565 21.825 36.585 18.59 36.585Z" stroke="#2D255E" stroke-width="2" stroke-miterlimit="10" stroke-linecap="round" stroke-linejoin="round"/>
<path d="M6.86344 36.585C3.62844 36.585 1 33.9565 1 30.7215V24.0493H12.7269V30.7215C12.7269 33.9565 10.0984 36.585 6.86344 36.585Z" stroke="#2D255E" stroke-width="2" stroke-miterlimit="10" stroke-linecap="round" stroke-linejoin="round"/>
<path d="M106.542 24.0494H94.8151L91.3577 4.63937H102.094L106.542 24.0494Z" stroke="#2D255E" stroke-width="2" stroke-miterlimit="10" stroke-linecap="round" stroke-linejoin="round"/>
<path d="M94.8147 24.0494H83.0878L80.6211 4.63937H91.3572L94.8147 24.0494Z" stroke="#2D255E" stroke-width="2" stroke-miterlimit="10" stroke-linecap="round" stroke-linejoin="round"/>
<path d="M83.0881 24.0494H71.3612L69.8853 4.63937H80.6214L83.0881 24.0494Z" stroke="#2D255E" stroke-width="2" stroke-miterlimit="10" stroke-linecap="round" stroke-linejoin="round"/>
<path d="M71.3613 24.0494H59.6344L59.1492 4.63937H69.8853L71.3613 24.0494Z" stroke="#2D255E" stroke-width="2" stroke-miterlimit="10" stroke-linecap="round" stroke-linejoin="round"/>
<path d="M59.6341 24.0494H47.9072L48.4127 4.63937H59.1488L59.6341 24.0494Z" stroke="#2D255E" stroke-width="2" stroke-miterlimit="10" stroke-linecap="round" stroke-linejoin="round"/>
<path d="M47.9073 24.0494H36.1804L37.6766 4.63937H48.4128L47.9073 24.0494Z" stroke="#2D255E" stroke-width="2" stroke-miterlimit="10" stroke-linecap="round" stroke-linejoin="round"/>
<path d="M36.1805 24.0494H24.4536L26.9203 4.63937H37.6767L36.1805 24.0494Z" stroke="#2D255E" stroke-width="2" stroke-miterlimit="10" stroke-linecap="round" stroke-linejoin="round"/>
<path d="M24.4534 24.0494H12.7266L16.184 4.63937H26.9201L24.4534 24.0494Z" stroke="#2D255E" stroke-width="2" stroke-miterlimit="10" stroke-linecap="round" stroke-linejoin="round"/>
<path d="M12.7269 24.0494H1L5.44813 4.63937H16.1843L12.7269 24.0494Z" stroke="#2D255E" stroke-width="2" stroke-miterlimit="10" stroke-linecap="round" stroke-linejoin="round"/>
<path d="M102.094 1H5.448V4.63937H102.094V1Z" fill="#DB6B7B"/>
<path d="M102.094 1H5.448V2.25356H102.094V1Z" fill="#F5969C"/>
<path d="M102.094 1H5.448V4.63937H102.094V1Z" stroke="#2D255E" stroke-width="2" stroke-miterlimit="10" stroke-linecap="round" stroke-linejoin="round"/>
<path d="M59.8878 48.4827L49.2087 50.7526L50.2722 55.7559L60.9513 53.486L59.8878 48.4827Z" fill="#E8E8E8"/>
<path d="M59.8878 48.4827L49.2087 50.7526L50.2722 55.7559L60.9513 53.486L59.8878 48.4827Z" stroke="#2D255E" stroke-width="2" stroke-miterlimit="10" stroke-linecap="round" stroke-linejoin="round"/>
<path d="M51.6074 51.8906L58.1785 50.4955C58.4413 50.4349 58.6839 50.5966 58.7446 50.8595L58.9468 51.7693C59.0074 52.0322 58.8457 52.2748 58.5828 52.3354L52.0118 53.7305C51.7489 53.7912 51.5063 53.6294 51.4456 53.3666L51.2434 52.4567C51.1828 52.1939 51.3445 51.9513 51.6074 51.8906Z" fill="#D3D3D3"/>
<path d="M52.5374 49.8283L54.2155 44.9151L56.2576 48.8982" stroke="#2D255E" stroke-width="2" stroke-miterlimit="10" stroke-linecap="round" stroke-linejoin="round"/>
<path d="M54.2157 45.7845C54.5507 45.7845 54.8223 45.513 54.8223 45.178C54.8223 44.843 54.5507 44.5714 54.2157 44.5714C53.8807 44.5714 53.6091 44.843 53.6091 45.178C53.6091 45.513 53.8807 45.7845 54.2157 45.7845Z" fill="#2D255E"/>
<path d="M22.472 74.4345H17.3567V76.8001H22.472V74.4345Z" fill="#DF747C"/>
<path d="M100.679 36.585C97.4436 36.585 94.8152 33.9565 94.8152 30.7215V24.0493H106.542V30.7215C106.542 33.9565 103.914 36.585 100.679 36.585Z" fill="#D6D6D6"/>
<path d="M100.679 36.585C97.4436 36.585 94.8152 33.9565 94.8152 30.7215V24.0493H106.542V30.7215C106.542 33.9565 103.914 36.585 100.679 36.585Z" stroke="#2D255E" stroke-width="2" stroke-miterlimit="10" stroke-linecap="round" stroke-linejoin="round"/>
<path d="M108.341 59.9376H100.658V91.2767H108.341V59.9376Z" fill="#D6D6D6"/>
<path d="M106.259 59.9376H102.356V91.2767H106.259V59.9376Z" fill="white"/>
<path d="M108.341 59.9376H100.658V91.2767H108.341V59.9376Z" stroke="#2D255E" stroke-width="2" stroke-miterlimit="10" stroke-linecap="round" stroke-linejoin="round"/>
<path d="M104.924 64.1634H103.893C103.347 64.1634 102.922 63.7388 102.922 63.1929V60.3825H105.895V63.1929C105.895 63.7186 105.45 64.1634 104.924 64.1634Z" fill="#2D255E"/>
</svg>
